<svg width="1600" height="1200" viewBox="0 0 1600 1200" fill="none" xmlns="http://www.w3.org/2000/svg">
  <defs>
    <linearGradient id="bg" x1="0" y1="0" x2="1" y2="1">
      <stop offset="0%" stop-color="#020617" />
      <stop offset="100%" stop-color="#111827" />
    </linearGradient>
    <radialGradient id="halo" cx="0.5" cy="0.3" r="0.6">
      <stop offset="0%" stop-color="#FBBF24" stop-opacity="0.35" />
      <stop offset="100%" stop-color="#0F172A" stop-opacity="0" />
    </radialGradient>
  </defs>
  <rect width="1600" height="1200" fill="url(#bg)" />
  <circle cx="1180" cy="320" r="220" fill="url(#halo)" />
  <rect x="220" y="180" width="420" height="580" rx="34" fill="#111827" stroke="#334155" stroke-width="6" />
  <rect x="740" y="240" width="520" height="520" rx="32" fill="#111827" stroke="#1E293B" stroke-width="4" />
  <rect x="260" y="240" width="360" height="120" rx="20" fill="#FBBF24" fill-opacity="0.12" />
  <rect x="260" y="380" width="320" height="18" rx="9" fill="#fff" fill-opacity="0.8" />
  <rect x="260" y="420" width="280" height="18" rx="9" fill="#fff" fill-opacity="0.55" />
  <rect x="260" y="470" width="190" height="18" rx="9" fill="#fff" fill-opacity="0.55" />
  <rect x="260" y="550" width="360" height="18" rx="9" fill="#fff" fill-opacity="0.45" />
  <rect x="260" y="590" width="260" height="18" rx="9" fill="#fff" fill-opacity="0.45" />
  <rect x="840" y="300" width="420" height="36" rx="18" fill="#fff" fill-opacity="0.95" />
  <rect x="840" y="360" width="310" height="28" rx="14" fill="#FDE68A" />
  <rect x="840" y="420" width="340" height="28" rx="14" fill="#FBBF24" />
  <rect x="840" y="480" width="260" height="28" rx="14" fill="#F97316" />
  <circle cx="1140" cy="540" r="92" fill="#0F172A" stroke="#FBBF24" stroke-width="8" />
  <circle cx="1140" cy="540" r="42" fill="#0F172A" stroke="#FDE68A" stroke-width="6" />
  <path d="M1080 520 C1100 480 1180 480 1200 520" stroke="#fff" stroke-width="6" stroke-linecap="round" fill="none" />
  <rect x="900" y="640" width="330" height="110" rx="20" fill="#0F172A" opacity="0.6" />
  <rect x="940" y="670" width="250" height="18" rx="9" fill="#fff" opacity="0.9" />
  <rect x="940" y="710" width="180" height="18" rx="9" fill="#fff" opacity="0.55" />
  <rect x="940" y="750" width="200" height="18" rx="9" fill="#fff" opacity="0.55" />
  <rect x="540" y="780" width="380" height="340" rx="34" fill="#111827" stroke="#334155" stroke-width="6" />
  <rect x="580" y="820" width="300" height="24" rx="12" fill="#fff" opacity="0.9" />
  <rect x="580" y="860" width="260" height="24" rx="12" fill="#fff" opacity="0.55" />
  <rect x="580" y="900" width="320" height="24" rx="12" fill="#fff" opacity="0.55" />
  <circle cx="540" cy="310" r="82" fill="#0F172A" stroke="#FBBF24" stroke-width="8" />
  <path d="M520 290 L560 290 L560 330 L520 330 Z" fill="#FBBF24" />
  <path d="M560 290 L600 290 L600 330 L560 330 Z" fill="#fff" opacity="0.7" />
  <path d="M520 330 C520 340 560 360 600 330" fill="#fff" opacity="0.35" />
</svg>
